<svg version="1.1" id="Layer_1" xmlns="http://www.w3.org/2000/svg"
	xmlns:xlink="http://www.w3.org/1999/xlink" x="0px" y="0px"
	width="100%" viewBox="0 0 338 319" enable-background="new 0 0 338 319" xml:space="preserve">
<path fill="#4DAF51" opacity="1.000000" stroke="none" 
	d="
M68.210884,219.992905 
	C41.969322,191.460388 40.870529,146.272720 60.567673,112.260193 
	C74.818703,87.651848 96.465202,71.485710 121.579773,59.472767 
	C150.885727,45.454979 182.093079,37.715233 214.166809,34.318657 
	C241.120438,31.464287 268.290131,30.601862 295.380981,29.178108 
	C297.677246,29.057428 301.071686,30.808243 302.158142,32.714333 
	C303.026215,34.237366 301.920593,38.102551 300.390656,39.595894 
	C268.245422,70.971848 250.252869,109.441071 241.721313,153.121292 
	C237.559616,174.428452 230.278946,194.832291 217.892166,213.060669 
	C202.761093,235.327545 181.737549,247.756348 155.012543,249.643311 
	C126.979218,251.622620 100.626350,246.243958 77.357040,228.431091 
	C77.838432,226.730743 78.654442,225.479324 79.383942,224.179367 
	C97.742165,191.465561 120.599174,162.430038 148.787552,137.514572 
	C166.083282,122.227005 184.847488,109.316658 205.363464,98.862007 
	C208.878983,97.070549 211.116516,94.727463 209.224197,90.553467 
	C207.572815,86.910919 204.366898,86.024422 199.991241,88.577209 
	C188.527863,95.265038 176.872742,101.710480 165.923676,109.175941 
	C141.997620,125.489601 121.429558,145.677628 103.683884,168.376129 
	C90.849770,184.792267 79.964996,202.732422 68.210884,219.992905 
z"/>
<path fill="#398F3D" opacity="1.000000" stroke="none" 
	d="
M68.128448,220.345856 
	C79.964996,202.732422 90.849770,184.792267 103.683884,168.376129 
	C121.429558,145.677628 141.997620,125.489601 165.923676,109.175941 
	C176.872742,101.710480 188.527863,95.265038 199.991241,88.577209 
	C204.366898,86.024422 207.572815,86.910919 209.224197,90.553467 
	C211.116516,94.727463 208.878983,97.070549 205.363464,98.862007 
	C184.847488,109.316658 166.083282,122.227005 148.787552,137.514572 
	C120.599174,162.430038 97.742165,191.465561 79.383942,224.179367 
	C78.654442,225.479324 77.838432,226.730743 77.010925,228.335266 
	C68.584885,244.599594 60.594234,260.665375 58.659706,278.953186 
	C58.284233,282.502686 56.378864,285.121185 52.550694,284.853790 
	C48.562725,284.575256 46.336796,281.719055 47.134773,277.945557 
	C49.019344,269.033722 50.686413,259.947876 53.876507,251.472565 
	C57.844574,240.930420 63.257233,230.932037 68.128448,220.345856 
z"/>
</svg>